# xmcd
#
# Track frame offsets: 
#        150
#        16605
#        30540
#        41594
#        54711
#        69647
#        82500
#        98365
#        115839
#        128625
#
# Disc length: 1857 seconds
#
# Revision: 2
# Processed by: cddbd v1.5.2PL0 Copyright (c) Steve Scherf et al.
# Submitted via: ExactAudioCopy v1.0b1
#
DISCID=69073f0a
DTITLE=David Allan Coe - Long Haired Country Boy (and Other Such Songs
DTITLE=)
DYEAR=2000
DGENRE=country
TTITLE0=Long Haired Country Boy
TTITLE1=He Stopped Loving Her Today
TTITLE2=Train Of Love
TTITLE3=Four Walls
TTITLE4=Prisoner's Song
TTITLE5=Me And Bobby McGee
TTITLE6=Waitin For A Train
TTITLE7=Folsom Prison Blues
TTITLE8=My Son Calls Another Man Daddy
TTITLE9=Ring On The Bar
EXTD=
EXTT0=
EXTT1=
EXTT2=
EXTT3=
EXTT4=
EXTT5=
EXTT6=
EXTT7=
EXTT8=
EXTT9=
PLAYORDER=
